# xmcd
#
# Track frame offsets: 
#        150
#        41400
#        69975
#        100200
#        130050
#        161025
#        197325
#
# Disc length: 3063 seconds
#
# Revision: 1
# Processed by: cddbd v1.5.2PL0 Copyright (c) Steve Scherf et al.
# Submitted via: ExactAudioCopy v0.95b4
#
DISCID=530bf507
DTITLE=Michael Weiss Quintet - Presenting Michael Weiss
DYEAR=1986
DGENRE=Jazz
TTITLE0=My Melancholy Baby
TTITLE1=Apres Vous
TTITLE2=Enigma
TTITLE3=B.G.O.
TTITLE4=Riverbed
TTITLE5=Gallop's Gallop
TTITLE6=La Villa
EXTD=YEAR: 1986
EXTT0=
EXTT1=
EXTT2=
EXTT3=
EXTT4=
EXTT5=
EXTT6=
PLAYORDER=
